<svg width="954" height="29" viewBox="0 0 954 29" fill="none" xmlns="http://www.w3.org/2000/svg">
<path d="M944.603 24.966L940.659 6.02795V25H938.347V1.19995H942.053L945.964 20.206L949.737 1.19995H953.443V25H950.927V5.85795L947.154 24.966H944.603Z" fill="black"/>
<path d="M924.963 6.94591C924.963 5.08725 925.416 3.62525 926.323 2.55991C927.252 1.49458 928.612 0.961914 930.403 0.961914C932.193 0.961914 933.553 1.49458 934.483 2.55991C935.412 3.62525 935.877 5.08725 935.877 6.94591V19.2539C935.877 21.1126 935.412 22.5746 934.483 23.6399C933.553 24.7052 932.193 25.2379 930.403 25.2379C928.635 25.2379 927.286 24.7052 926.357 23.6399C925.427 22.5746 924.963 21.1126 924.963 19.2539V6.94591ZM927.581 19.3899C927.581 20.5006 927.819 21.3506 928.295 21.9399C928.771 22.5292 929.473 22.8239 930.403 22.8239C932.284 22.8239 933.225 21.6792 933.225 19.3899V6.80991C933.225 5.72191 932.987 4.88325 932.511 4.29391C932.057 3.68191 931.355 3.37591 930.403 3.37591C929.473 3.37591 928.771 3.68191 928.295 4.29391C927.819 4.88325 927.581 5.72191 927.581 6.80991V19.3899Z" fill="black"/>
<path d="M916.154 3.61395H911.768V1.19995H923.192V3.61395H918.806V25H916.154V3.61395Z" fill="black"/>
<path d="M904.734 0.961914C906.525 0.961914 907.862 1.49458 908.746 2.55991C909.653 3.62525 910.106 5.08725 910.106 6.94591V9.08791H907.59V6.80991C907.59 4.52058 906.661 3.37591 904.802 3.37591C903.873 3.37591 903.17 3.68191 902.694 4.29391C902.241 4.88325 902.014 5.72191 902.014 6.80991V19.3899C902.014 20.4779 902.241 21.3279 902.694 21.9399C903.17 22.5292 903.873 22.8239 904.802 22.8239C906.661 22.8239 907.59 21.6792 907.59 19.3899V16.2959H910.106V19.2539C910.106 21.1126 909.653 22.5746 908.746 23.6399C907.862 24.7052 906.525 25.2379 904.734 25.2379C902.966 25.2379 901.629 24.7052 900.722 23.6399C899.838 22.5746 899.396 21.1126 899.396 19.2539V6.94591C899.396 5.08725 899.838 3.62525 900.722 2.55991C901.629 1.49458 902.966 0.961914 904.734 0.961914Z" fill="black"/>
<path d="M888.442 25H885.688V1.19995H888.034V18.948L890.482 11.434L893.95 1.19995H896.908V25H894.528V6.06195L891.978 13.95L888.442 25Z" fill="black"/>
<path d="M875.103 19.084C875.035 21.1013 874.649 22.5973 873.947 23.572C873.244 24.524 872.031 25.0113 870.309 25.034H869.867V22.62C870.909 22.62 871.601 22.3706 871.941 21.872C872.281 21.3506 872.473 20.4666 872.519 19.22L873.165 1.19995H882.855V25H880.203V3.61395H875.647L875.103 19.084Z" fill="black"/>
<path d="M858.005 25H855.557L860.113 1.19995H863.955L868.511 25H865.859L864.941 20.206H858.923L858.005 25ZM864.567 17.928L861.881 4.19195L859.263 17.928H864.567Z" fill="black"/>
<path d="M845.079 25H842.325V1.19995H844.671V18.948L847.119 11.434L850.587 1.19995H853.545V25H851.165V6.06195L848.615 13.95L845.079 25Z" fill="black"/>
<path d="M837.46 25H827.09V1.19995H829.708V22.586H835.556V1.19995H838.242V22.654H840.044V28.196H837.46V25Z" fill="black"/>
<path d="M823.066 14.12H817.252V22.586H824.392V25H814.6V1.19995H824.392V3.61395H817.252V11.74H823.066V14.12Z" fill="black"/>
<path d="M803.373 25H800.721V1.19995H811.873V25H809.221V3.61395H803.373V25Z" fill="black"/>
<path d="M792.939 0.961914C794.73 0.961914 796.067 1.49458 796.951 2.55991C797.858 3.62525 798.311 5.08725 798.311 6.94591V9.08791H795.795V6.80991C795.795 4.52058 794.866 3.37591 793.007 3.37591C792.078 3.37591 791.375 3.68191 790.899 4.29391C790.446 4.88325 790.219 5.72191 790.219 6.80991V19.3899C790.219 20.4779 790.446 21.3279 790.899 21.9399C791.375 22.5292 792.078 22.8239 793.007 22.8239C794.866 22.8239 795.795 21.6792 795.795 19.3899V16.2959H798.311V19.2539C798.311 21.1126 797.858 22.5746 796.951 23.6399C796.067 24.7052 794.73 25.2379 792.939 25.2379C791.171 25.2379 789.834 24.7052 788.927 23.6399C788.043 22.5746 787.601 21.1126 787.601 19.2539V6.94591C787.601 5.08725 788.043 3.62525 788.927 2.55991C789.834 1.49458 791.171 0.961914 792.939 0.961914Z" fill="black"/>
<path d="M769.107 6.94591C769.107 5.08725 769.56 3.62525 770.467 2.55991C771.396 1.49458 772.757 0.961914 774.547 0.961914C776.338 0.961914 777.698 1.49458 778.627 2.55991C779.557 3.62525 780.021 5.08725 780.021 6.94591V19.2539C780.021 21.1126 779.557 22.5746 778.627 23.6399C777.698 24.7052 776.338 25.2379 774.547 25.2379C772.779 25.2379 771.43 24.7052 770.501 23.6399C769.572 22.5746 769.107 21.1126 769.107 19.2539V6.94591ZM771.725 19.3899C771.725 20.5006 771.963 21.3506 772.439 21.9399C772.915 22.5292 773.618 22.8239 774.547 22.8239C776.429 22.8239 777.369 21.6792 777.369 19.3899V6.80991C777.369 5.72191 777.131 4.88325 776.655 4.29391C776.202 3.68191 775.499 3.37591 774.547 3.37591C773.618 3.37591 772.915 3.68191 772.439 4.29391C771.963 4.88325 771.725 5.72191 771.725 6.80991V19.3899Z" fill="black"/>
<path d="M761.529 0.961914C763.32 0.961914 764.657 1.49458 765.541 2.55991C766.448 3.62525 766.901 5.08725 766.901 6.94591V9.08791H764.385V6.80991C764.385 4.52058 763.456 3.37591 761.597 3.37591C760.668 3.37591 759.965 3.68191 759.489 4.29391C759.036 4.88325 758.809 5.72191 758.809 6.80991V19.3899C758.809 20.4779 759.036 21.3279 759.489 21.9399C759.965 22.5292 760.668 22.8239 761.597 22.8239C763.456 22.8239 764.385 21.6792 764.385 19.3899V16.2959H766.901V19.2539C766.901 21.1126 766.448 22.5746 765.541 23.6399C764.657 24.7052 763.32 25.2379 761.529 25.2379C759.761 25.2379 758.424 24.7052 757.517 23.6399C756.633 22.5746 756.191 21.1126 756.191 19.2539V6.94591C756.191 5.08725 756.633 3.62525 757.517 2.55991C758.424 1.49458 759.761 0.961914 761.529 0.961914Z" fill="black"/>
<path d="M743.889 14.834C742.733 14.834 741.86 15.106 741.271 15.65C740.704 16.1713 740.421 17.078 740.421 18.37V22.11C740.421 22.8806 740.387 23.47 740.319 23.878C740.251 24.2633 740.138 24.6373 739.979 25H737.293C737.61 24.3653 737.769 23.4133 737.769 22.144V18.438C737.769 17.1006 737.996 16.024 738.449 15.208C738.925 14.3693 739.684 13.7913 740.727 13.474C738.778 12.8393 737.803 11.2073 737.803 8.57795V6.63995C737.803 4.82662 738.222 3.46662 739.061 2.55995C739.922 1.65328 741.271 1.19995 743.107 1.19995H748.411V25H745.759V14.834H743.889ZM743.175 3.61395C742.2 3.61395 741.498 3.88595 741.067 4.42995C740.636 4.97395 740.421 5.78995 740.421 6.87795V9.15595C740.421 10.38 740.693 11.23 741.237 11.706C741.804 12.182 742.642 12.42 743.753 12.42H745.759V3.61395H743.175Z" fill="black"/>
<path d="M729.953 0.961914C731.744 0.961914 733.081 1.49458 733.965 2.55991C734.872 3.62525 735.325 5.08725 735.325 6.94591V9.08791H732.809V6.80991C732.809 4.52058 731.88 3.37591 730.021 3.37591C729.092 3.37591 728.389 3.68191 727.913 4.29391C727.46 4.88325 727.233 5.72191 727.233 6.80991V19.3899C727.233 20.4779 727.46 21.3279 727.913 21.9399C728.389 22.5292 729.092 22.8239 730.021 22.8239C731.88 22.8239 732.809 21.6792 732.809 19.3899V16.2959H735.325V19.2539C735.325 21.1126 734.872 22.5746 733.965 23.6399C733.081 24.7052 731.744 25.2379 729.953 25.2379C728.185 25.2379 726.848 24.7052 725.941 23.6399C725.057 22.5746 724.615 21.1126 724.615 19.2539V6.94591C724.615 5.08725 725.057 3.62525 725.941 2.55991C726.848 1.49458 728.185 0.961914 729.953 0.961914Z" fill="black"/>
<path d="M716.868 10.584C720.562 10.584 722.41 12.4993 722.41 16.33V19.186C722.41 21.0446 721.968 22.484 721.084 23.504C720.222 24.5013 718.885 25 717.072 25H711.87V1.19995H714.522V10.584H716.868ZM717.072 22.586C718.024 22.586 718.715 22.3253 719.146 21.804C719.576 21.26 719.792 20.4326 719.792 19.322V16.16C719.792 15.0266 719.554 14.2106 719.078 13.712C718.602 13.2133 717.865 12.964 716.868 12.964H714.522V22.586H717.072Z" fill="black"/>
<path d="M702.857 3.61395H698.471V1.19995H709.895V3.61395H705.509V25H702.857V3.61395Z" fill="black"/>
<path d="M686.644 25H684.196L688.752 1.19995H692.594L697.15 25H694.498L693.58 20.206H687.562L686.644 25ZM693.206 17.928L690.52 4.19195L687.902 17.928H693.206Z" fill="black"/>
<path d="M676.899 1.19995C678.713 1.19995 680.027 1.63062 680.843 2.49195C681.659 3.35329 682.067 4.67929 682.067 6.46995V7.59195C682.067 8.90662 681.852 9.94928 681.421 10.72C680.99 11.468 680.277 12.0006 679.279 12.318C681.41 12.9073 682.475 14.6073 682.475 17.418V19.424C682.475 21.2373 682.022 22.62 681.115 23.572C680.231 24.524 678.871 25 677.035 25H671.561V1.19995H676.899ZM676.253 11.298C677.364 11.298 678.169 11.0713 678.667 10.618C679.189 10.1646 679.449 9.33729 679.449 8.13595V6.74195C679.449 5.67662 679.245 4.89462 678.837 4.39595C678.429 3.87462 677.761 3.61395 676.831 3.61395H674.213V11.298H676.253ZM677.035 22.586C678.01 22.586 678.724 22.3253 679.177 21.804C679.631 21.2826 679.857 20.4666 679.857 19.356V17.248C679.857 15.956 679.597 15.0493 679.075 14.528C678.554 13.984 677.704 13.712 676.525 13.712H674.213V22.586H677.035Z" fill="black"/>
<path d="M658.142 6.94591C658.142 5.08725 658.596 3.62525 659.502 2.55991C660.432 1.49458 661.792 0.961914 663.582 0.961914C665.373 0.961914 666.733 1.49458 667.662 2.55991C668.592 3.62525 669.056 5.08725 669.056 6.94591V19.2539C669.056 21.1126 668.592 22.5746 667.662 23.6399C666.733 24.7052 665.373 25.2379 663.582 25.2379C661.814 25.2379 660.466 24.7052 659.536 23.6399C658.607 22.5746 658.142 21.1126 658.142 19.2539V6.94591ZM660.76 19.3899C660.76 20.5006 660.998 21.3506 661.474 21.9399C661.95 22.5292 662.653 22.8239 663.582 22.8239C665.464 22.8239 666.404 21.6792 666.404 19.3899V6.80991C666.404 5.72191 666.166 4.88325 665.69 4.29391C665.237 3.68191 664.534 3.37591 663.582 3.37591C662.653 3.37591 661.95 3.68191 661.474 4.29391C660.998 4.88325 660.76 5.72191 660.76 6.80991V19.3899Z" fill="black"/>
<path d="M650.931 1.19995C652.744 1.19995 654.082 1.70995 654.943 2.72995C655.827 3.72729 656.269 5.15529 656.269 7.01395V9.86995C656.269 13.7006 654.422 15.616 650.727 15.616H648.381V25H645.729V1.19995H650.931ZM650.727 13.236C651.724 13.236 652.461 12.9866 652.937 12.488C653.413 11.9893 653.651 11.1733 653.651 10.04V6.87795C653.651 5.76729 653.436 4.95129 653.005 4.42995C652.574 3.88595 651.883 3.61395 650.931 3.61395H648.381V13.236H650.727Z" fill="black"/>
<path d="M634.571 25H631.817V1.19995H634.163V18.948L636.611 11.434L640.079 1.19995H643.037V25H640.657V6.06195L638.107 13.95L634.571 25Z" fill="black"/>
<path d="M622.805 3.61395H618.419V1.19995H629.843V3.61395H625.457V25H622.805V3.61395Z" fill="black"/>
<path d="M611.215 10.584C614.91 10.584 616.757 12.4993 616.757 16.33V19.186C616.757 21.0446 616.315 22.484 615.431 23.504C614.57 24.5013 613.233 25 611.419 25H606.217V1.19995H608.869V10.584H611.215ZM611.419 22.586C612.371 22.586 613.063 22.3253 613.493 21.804C613.924 21.26 614.139 20.4326 614.139 19.322V16.16C614.139 15.0266 613.901 14.2106 613.425 13.712C612.949 13.2133 612.213 12.964 611.215 12.964H608.869V22.586H611.419Z" fill="black"/>
<path d="M595.632 19.084C595.564 21.1013 595.179 22.5973 594.476 23.572C593.773 24.524 592.561 25.0113 590.838 25.034H590.396V22.62C591.439 22.62 592.13 22.3706 592.47 21.872C592.81 21.3506 593.003 20.4666 593.048 19.22L593.694 1.19995H603.384V25H600.732V3.61395H596.176L595.632 19.084Z" fill="black"/>
<path d="M584.072 19.764C583.778 21.056 583.404 22.0873 582.95 22.858C582.52 23.6286 581.885 24.2066 581.046 24.592C580.23 24.9546 579.12 25.102 577.714 25.034V22.654C578.734 22.6993 579.494 22.552 579.992 22.212C580.514 21.8493 580.888 21.2146 581.114 20.308L581.658 18.744L576.184 1.19995H578.836L581.25 9.46195L582.882 15.446L584.276 9.46195L586.418 1.19995H589.172L584.072 19.764Z" fill="black"/>
<path d="M569.15 0.961914C570.941 0.961914 572.278 1.49458 573.162 2.55991C574.069 3.62525 574.522 5.08725 574.522 6.94591V9.08791H572.006V6.80991C572.006 4.52058 571.077 3.37591 569.218 3.37591C568.289 3.37591 567.586 3.68191 567.11 4.29391C566.657 4.88325 566.43 5.72191 566.43 6.80991V19.3899C566.43 20.4779 566.657 21.3279 567.11 21.9399C567.586 22.5292 568.289 22.8239 569.218 22.8239C571.077 22.8239 572.006 21.6792 572.006 19.3899V16.2959H574.522V19.2539C574.522 21.1126 574.069 22.5746 573.162 23.6399C572.278 24.7052 570.941 25.2379 569.15 25.2379C567.382 25.2379 566.045 24.7052 565.138 23.6399C564.254 22.5746 563.812 21.1126 563.812 19.2539V6.94591C563.812 5.08725 564.254 3.62525 565.138 2.55991C566.045 1.49458 567.382 0.961914 569.15 0.961914Z" fill="black"/>
<path d="M552.789 25H550.137V1.19995H552.789V11.91H558.637V1.19995H561.289V25H558.637V14.29H552.789V25Z" fill="black"/>
<path d="M536.719 6.94591C536.719 5.08725 537.172 3.62525 538.078 2.55991C539.008 1.49458 540.368 0.961914 542.159 0.961914C543.949 0.961914 545.309 1.49458 546.239 2.55991C547.168 3.62525 547.633 5.08725 547.633 6.94591V19.2539C547.633 21.1126 547.168 22.5746 546.239 23.6399C545.309 24.7052 543.949 25.2379 542.159 25.2379C540.391 25.2379 539.042 24.7052 538.112 23.6399C537.183 22.5746 536.719 21.1126 536.719 19.2539V6.94591ZM539.336 19.3899C539.336 20.5006 539.574 21.3506 540.05 21.9399C540.526 22.5292 541.229 22.8239 542.159 22.8239C544.04 22.8239 544.981 21.6792 544.981 19.3899V6.80991C544.981 5.72191 544.742 4.88325 544.266 4.29391C543.813 3.68191 543.111 3.37591 542.159 3.37591C541.229 3.37591 540.526 3.68191 540.05 4.29391C539.574 4.88325 539.336 5.72191 539.336 6.80991V19.3899Z" fill="black"/>
<path d="M525.662 17.01V25H523.01V1.19995H525.662V12.692L531.986 1.19995H534.672L528.654 12.046L534.876 25H532.156L527.056 14.664L525.662 17.01Z" fill="black"/>
<path d="M509.592 6.94591C509.592 5.08725 510.045 3.62525 510.952 2.55991C511.881 1.49458 513.241 0.961914 515.032 0.961914C516.822 0.961914 518.182 1.49458 519.112 2.55991C520.041 3.62525 520.506 5.08725 520.506 6.94591V19.2539C520.506 21.1126 520.041 22.5746 519.112 23.6399C518.182 24.7052 516.822 25.2379 515.032 25.2379C513.264 25.2379 511.915 24.7052 510.986 23.6399C510.056 22.5746 509.592 21.1126 509.592 19.2539V6.94591ZM512.21 19.3899C512.21 20.5006 512.448 21.3506 512.924 21.9399C513.4 22.5292 514.102 22.8239 515.032 22.8239C516.913 22.8239 517.854 21.6792 517.854 19.3899V6.80991C517.854 5.72191 517.616 4.88325 517.14 4.29391C516.686 3.68191 515.984 3.37591 515.032 3.37591C514.102 3.37591 513.4 3.68191 512.924 4.29391C512.448 4.88325 512.21 5.72191 512.21 6.80991V19.3899Z" fill="black"/>
<path d="M502.38 1.19995C504.194 1.19995 505.531 1.70995 506.392 2.72995C507.276 3.72729 507.718 5.15529 507.718 7.01395V9.86995C507.718 13.7006 505.871 15.616 502.176 15.616H499.83V25H497.178V1.19995H502.38ZM502.176 13.236C503.174 13.236 503.91 12.9866 504.386 12.488C504.862 11.9893 505.1 11.1733 505.1 10.04V6.87795C505.1 5.76729 504.885 4.95129 504.454 4.42995C504.024 3.88595 503.332 3.61395 502.38 3.61395H499.83V13.236H502.176Z" fill="black"/>
<path d="M485.951 25H483.299V1.19995H494.451V25H491.799V3.61395H485.951V25Z" fill="black"/>
<path d="M464.601 6.94591C464.601 5.08725 465.055 3.62525 465.961 2.55991C466.891 1.49458 468.251 0.961914 470.041 0.961914C471.832 0.961914 473.192 1.49458 474.121 2.55991C475.051 3.62525 475.515 5.08725 475.515 6.94591V19.2539C475.515 21.1126 475.051 22.5746 474.121 23.6399C473.192 24.7052 471.832 25.2379 470.041 25.2379C468.273 25.2379 466.925 24.7052 465.995 23.6399C465.066 22.5746 464.601 21.1126 464.601 19.2539V6.94591ZM467.219 19.3899C467.219 20.5006 467.457 21.3506 467.933 21.9399C468.409 22.5292 469.112 22.8239 470.041 22.8239C471.923 22.8239 472.863 21.6792 472.863 19.3899V6.80991C472.863 5.72191 472.625 4.88325 472.149 4.29391C471.696 3.68191 470.993 3.37591 470.041 3.37591C469.112 3.37591 468.409 3.68191 467.933 4.29391C467.457 4.88325 467.219 5.72191 467.219 6.80991V19.3899Z" fill="black"/>
<path d="M453.23 24.966L449.286 6.02795V25H446.974V1.19995H450.68L454.59 20.206L458.364 1.19995H462.07V25H459.554V5.85795L455.78 24.966H453.23Z" fill="black"/>
<path d="M435.85 25H433.096V1.19995H435.442V18.948L437.89 11.434L441.358 1.19995H444.316V25H441.936V6.06195L439.386 13.95L435.85 25Z" fill="black"/>
<path d="M428.192 25H418.468V28.264H415.918V22.654H417.448C417.833 22.2233 418.094 21.7473 418.23 21.226C418.366 20.682 418.456 20.002 418.502 19.186L419.42 1.19995H428.974V22.654H430.776V28.264H428.192V25ZM421.086 19.152C421.04 20.036 420.938 20.75 420.78 21.294C420.621 21.8153 420.36 22.2686 419.998 22.654H426.288V3.61395H421.868L421.086 19.152Z" fill="black"/>
<path d="M403.043 6.94591C403.043 5.08725 403.496 3.62525 404.403 2.55991C405.332 1.49458 406.692 0.961914 408.483 0.961914C410.273 0.961914 411.633 1.49458 412.563 2.55991C413.492 3.62525 413.957 5.08725 413.957 6.94591V19.2539C413.957 21.1126 413.492 22.5746 412.563 23.6399C411.633 24.7052 410.273 25.2379 408.483 25.2379C406.715 25.2379 405.366 24.7052 404.437 23.6399C403.507 22.5746 403.043 21.1126 403.043 19.2539V6.94591ZM405.661 19.3899C405.661 20.5006 405.899 21.3506 406.375 21.9399C406.851 22.5292 407.553 22.8239 408.483 22.8239C410.364 22.8239 411.305 21.6792 411.305 19.3899V6.80991C411.305 5.72191 411.067 4.88325 410.591 4.29391C410.137 3.68191 409.435 3.37591 408.483 3.37591C407.553 3.37591 406.851 3.68191 406.375 4.29391C405.899 4.88325 405.661 5.72191 405.661 6.80991V19.3899Z" fill="black"/>
<path d="M390.409 25H387.893L392.687 12.726L388.199 1.19995H390.953L394.625 10.72L398.331 1.19995H400.813L396.359 12.726L401.119 25H398.331L394.387 14.732L390.409 25Z" fill="black"/>
<path d="M380.265 11.026C382.124 11.026 383.518 11.4906 384.447 12.42C385.399 13.3266 385.875 14.7206 385.875 16.602V19.22C385.875 23.0733 384.05 25 380.401 25H374.859V1.19995H384.889V3.61395H377.477V11.026H380.265ZM380.401 22.586C381.376 22.586 382.09 22.3366 382.543 21.838C382.996 21.3166 383.223 20.5006 383.223 19.39V16.432C383.223 15.3213 382.985 14.5393 382.509 14.086C382.033 13.6326 381.285 13.406 380.265 13.406H377.477V22.586H380.401Z" fill="black"/>
<path d="M361.406 6.94591C361.406 5.08725 361.859 3.62525 362.766 2.55991C363.695 1.49458 365.055 0.961914 366.846 0.961914C368.637 0.961914 369.997 1.49458 370.926 2.55991C371.855 3.62525 372.32 5.08725 372.32 6.94591V19.2539C372.32 21.1126 371.855 22.5746 370.926 23.6399C369.997 24.7052 368.637 25.2379 366.846 25.2379C365.078 25.2379 363.729 24.7052 362.8 23.6399C361.871 22.5746 361.406 21.1126 361.406 19.2539V6.94591ZM364.024 19.3899C364.024 20.5006 364.262 21.3506 364.738 21.9399C365.214 22.5292 365.917 22.8239 366.846 22.8239C368.727 22.8239 369.668 21.6792 369.668 19.3899V6.80991C369.668 5.72191 369.43 4.88325 368.954 4.29391C368.501 3.68191 367.798 3.37591 366.846 3.37591C365.917 3.37591 365.214 3.68191 364.738 4.29391C364.262 4.88325 364.024 5.72191 364.024 6.80991V19.3899Z" fill="black"/>
<path d="M357.824 14.12H352.01V22.586H359.15V25H349.358V1.19995H359.15V3.61395H352.01V11.74H357.824V14.12Z" fill="black"/>
<path d="M338.131 25H335.479V1.19995H338.131V11.91H343.979V1.19995H346.631V25H343.979V14.29H338.131V25Z" fill="black"/>
<path d="M327.471 24.9999H324.921V21.7019H327.471V24.9999Z" fill="black"/>
<path d="M317.694 14.834C316.538 14.834 315.665 15.106 315.076 15.65C314.509 16.1713 314.226 17.078 314.226 18.37V22.11C314.226 22.8806 314.192 23.47 314.124 23.878C314.056 24.2633 313.942 24.6373 313.784 25H311.098C311.415 24.3653 311.574 23.4133 311.574 22.144V18.438C311.574 17.1006 311.8 16.024 312.254 15.208C312.73 14.3693 313.489 13.7913 314.532 13.474C312.582 12.8393 311.608 11.2073 311.608 8.57795V6.63995C311.608 4.82662 312.027 3.46662 312.866 2.55995C313.727 1.65328 315.076 1.19995 316.912 1.19995H322.216V25H319.564V14.834H317.694ZM316.98 3.61395C316.005 3.61395 315.302 3.88595 314.872 4.42995C314.441 4.97395 314.226 5.78995 314.226 6.87795V9.15595C314.226 10.38 314.498 11.23 315.042 11.706C315.608 12.182 316.447 12.42 317.558 12.42H319.564V3.61395H316.98Z" fill="black"/>
<path d="M300.382 25H297.628V1.19995H299.974V18.948L302.422 11.434L305.89 1.19995H308.848V25H306.468V6.06195L303.918 13.95L300.382 25Z" fill="black"/>
<path d="M286.401 25H283.749V1.19995H286.401V11.91H292.249V1.19995H294.901V25H292.249V14.29H286.401V25Z" fill="black"/>
<path d="M271.173 25H268.725L273.281 1.19995H277.123L281.679 25H279.027L278.109 20.206H272.091L271.173 25ZM277.735 17.928L275.049 4.19195L272.431 17.928H277.735Z" fill="black"/>
<path d="M261.458 0.961914C263.249 0.961914 264.586 1.49458 265.47 2.55991C266.377 3.62525 266.83 5.08725 266.83 6.94591V7.55791C266.83 8.80458 266.581 9.84725 266.082 10.6859C265.584 11.5246 264.858 12.1252 263.906 12.4879C264.881 12.8279 265.606 13.4286 266.082 14.2899C266.581 15.1286 266.83 16.1599 266.83 17.3839V19.2539C266.83 21.1126 266.377 22.5746 265.47 23.6399C264.586 24.7052 263.249 25.2379 261.458 25.2379C259.69 25.2379 258.353 24.7052 257.446 23.6399C256.562 22.5746 256.12 21.1126 256.12 19.2539V16.9419H258.602V19.3899C258.602 20.4779 258.829 21.3279 259.282 21.9399C259.758 22.5292 260.461 22.8239 261.39 22.8239C262.342 22.8239 263.045 22.5179 263.498 21.9059C263.952 21.2939 264.178 20.3872 264.178 19.1859V17.3159C264.178 16.1599 263.918 15.2872 263.396 14.6979C262.875 14.0859 262.116 13.7799 261.118 13.7799H259.996V11.3999H261.254C262.138 11.3999 262.841 11.1166 263.362 10.5499C263.906 9.96058 264.178 9.15591 264.178 8.13591V7.04791C264.178 5.80125 263.952 4.88325 263.498 4.29391C263.045 3.68191 262.342 3.37591 261.39 3.37591C260.461 3.37591 259.758 3.68191 259.282 4.29391C258.829 4.88325 258.602 5.72191 258.602 6.80991V8.40791H256.154V6.91191C256.154 5.03058 256.596 3.56858 257.48 2.52591C258.364 1.48325 259.69 0.961914 261.458 0.961914Z" fill="black"/>
<path d="M243.681 25H241.233L245.789 1.19995H249.631L254.187 25H251.535L250.617 20.206H244.599L243.681 25ZM250.243 17.928L247.557 4.19195L244.939 17.928H250.243Z" fill="black"/>
<path d="M230.653 17.01V25H228.001V1.19995H230.653V12.692L236.977 1.19995H239.663L233.645 12.046L239.867 25H237.147L232.047 14.664L230.653 17.01Z" fill="black"/>
<path d="M214.582 6.94591C214.582 5.08725 215.035 3.62525 215.942 2.55991C216.871 1.49458 218.231 0.961914 220.022 0.961914C221.812 0.961914 223.172 1.49458 224.102 2.55991C225.031 3.62525 225.496 5.08725 225.496 6.94591V19.2539C225.496 21.1126 225.031 22.5746 224.102 23.6399C223.172 24.7052 221.812 25.2379 220.022 25.2379C218.254 25.2379 216.905 24.7052 215.976 23.6399C215.046 22.5746 214.582 21.1126 214.582 19.2539V6.94591ZM217.2 19.3899C217.2 20.5006 217.438 21.3506 217.914 21.9399C218.39 22.5292 219.092 22.8239 220.022 22.8239C221.903 22.8239 222.844 21.6792 222.844 19.3899V6.80991C222.844 5.72191 222.606 4.88325 222.13 4.29391C221.676 3.68191 220.974 3.37591 220.022 3.37591C219.092 3.37591 218.39 3.68191 217.914 4.29391C217.438 4.88325 217.2 5.72191 217.2 6.80991V19.3899Z" fill="black"/>
<path d="M203.559 25H200.907V1.19995H212.059V25H209.407V3.61395H203.559V25Z" fill="black"/>
<path d="M187.488 6.94591C187.488 5.08725 187.941 3.62525 188.848 2.55991C189.777 1.49458 191.137 0.961914 192.928 0.961914C194.719 0.961914 196.079 1.49458 197.008 2.55991C197.937 3.62525 198.402 5.08725 198.402 6.94591V19.2539C198.402 21.1126 197.937 22.5746 197.008 23.6399C196.079 24.7052 194.719 25.2379 192.928 25.2379C191.16 25.2379 189.811 24.7052 188.882 23.6399C187.953 22.5746 187.488 21.1126 187.488 19.2539V6.94591ZM190.106 19.3899C190.106 20.5006 190.344 21.3506 190.82 21.9399C191.296 22.5292 191.999 22.8239 192.928 22.8239C194.809 22.8239 195.75 21.6792 195.75 19.3899V6.80991C195.75 5.72191 195.512 4.88325 195.036 4.29391C194.583 3.68191 193.88 3.37591 192.928 3.37591C191.999 3.37591 191.296 3.68191 190.82 4.29391C190.344 4.88325 190.106 5.72191 190.106 6.80991V19.3899Z" fill="black"/>
<path d="M179.716 1.19995C181.529 1.19995 182.844 1.63062 183.66 2.49195C184.476 3.35329 184.884 4.67929 184.884 6.46995V7.59195C184.884 8.90662 184.668 9.94928 184.238 10.72C183.807 11.468 183.093 12.0006 182.096 12.318C184.226 12.9073 185.292 14.6073 185.292 17.418V19.424C185.292 21.2373 184.838 22.62 183.932 23.572C183.048 24.524 181.688 25 179.852 25H174.378V1.19995H179.716ZM179.07 11.298C180.18 11.298 180.985 11.0713 181.484 10.618C182.005 10.1646 182.266 9.33729 182.266 8.13595V6.74195C182.266 5.67662 182.062 4.89462 181.654 4.39595C181.246 3.87462 180.577 3.61395 179.648 3.61395H177.03V11.298H179.07ZM179.852 22.586C180.826 22.586 181.54 22.3253 181.994 21.804C182.447 21.2826 182.674 20.4666 182.674 19.356V17.248C182.674 15.956 182.413 15.0493 181.892 14.528C181.37 13.984 180.52 13.712 179.342 13.712H177.03V22.586H179.852Z" fill="black"/>
<path d="M163.219 25H160.465V1.19995H162.811V18.948L165.259 11.434L168.727 1.19995H171.685V25H169.305V6.06195L166.755 13.95L163.219 25Z" fill="black"/>
<path d="M151.453 3.61395H147.067V1.19995H158.491V3.61395H154.105V25H151.453V3.61395Z" fill="black"/>
<path d="M134.396 6.94591C134.396 5.08725 134.85 3.62525 135.756 2.55991C136.686 1.49458 138.046 0.961914 139.836 0.961914C141.627 0.961914 142.987 1.49458 143.916 2.55991C144.846 3.62525 145.31 5.08725 145.31 6.94591V19.2539C145.31 21.1126 144.846 22.5746 143.916 23.6399C142.987 24.7052 141.627 25.2379 139.836 25.2379C138.068 25.2379 136.72 24.7052 135.79 23.6399C134.861 22.5746 134.396 21.1126 134.396 19.2539V6.94591ZM137.014 19.3899C137.014 20.5006 137.252 21.3506 137.728 21.9399C138.204 22.5292 138.907 22.8239 139.836 22.8239C141.718 22.8239 142.658 21.6792 142.658 19.3899V6.80991C142.658 5.72191 142.42 4.88325 141.944 4.29391C141.491 3.68191 140.788 3.37591 139.836 3.37591C138.907 3.37591 138.204 3.68191 137.728 4.29391C137.252 4.88325 137.014 5.72191 137.014 6.80991V19.3899Z" fill="black"/>
<path d="M127.185 1.19995C128.998 1.19995 130.336 1.70995 131.197 2.72995C132.081 3.72729 132.523 5.15529 132.523 7.01395V9.86995C132.523 13.7006 130.676 15.616 126.981 15.616H124.635V25H121.983V1.19995H127.185ZM126.981 13.236C127.978 13.236 128.715 12.9866 129.191 12.488C129.667 11.9893 129.905 11.1733 129.905 10.04V6.87795C129.905 5.76729 129.69 4.95129 129.259 4.42995C128.828 3.88595 128.137 3.61395 127.185 3.61395H124.635V13.236H126.981Z" fill="black"/>
<path d="M110.756 25H108.104V1.19995H119.256V25H116.604V3.61395H110.756V25Z" fill="black"/>
<path d="M95.598 14.834C94.442 14.834 93.5693 15.106 92.98 15.65C92.4133 16.1713 92.13 17.078 92.13 18.37V22.11C92.13 22.8806 92.096 23.47 92.028 23.878C91.96 24.2633 91.8466 24.6373 91.688 25H89.002C89.3193 24.3653 89.478 23.4133 89.478 22.144V18.438C89.478 17.1006 89.7046 16.024 90.158 15.208C90.634 14.3693 91.3933 13.7913 92.436 13.474C90.4866 12.8393 89.512 11.2073 89.512 8.57795V6.63995C89.512 4.82662 89.9313 3.46662 90.77 2.55995C91.6313 1.65328 92.98 1.19995 94.816 1.19995H100.12V25H97.468V14.834H95.598ZM94.884 3.61395C93.9093 3.61395 93.2066 3.88595 92.776 4.42995C92.3453 4.97395 92.13 5.78995 92.13 6.87795V9.15595C92.13 10.38 92.402 11.23 92.946 11.706C93.5126 12.182 94.3513 12.42 95.462 12.42H97.468V3.61395H94.884Z" fill="black"/>
<path d="M81.662 0.961914C83.4526 0.961914 84.79 1.49458 85.674 2.55991C86.5806 3.62525 87.034 5.08725 87.034 6.94591V9.08791H84.518V6.80991C84.518 4.52058 83.5886 3.37591 81.73 3.37591C80.8006 3.37591 80.098 3.68191 79.622 4.29391C79.1686 4.88325 78.942 5.72191 78.942 6.80991V19.3899C78.942 20.4779 79.1686 21.3279 79.622 21.9399C80.098 22.5292 80.8006 22.8239 81.73 22.8239C83.5886 22.8239 84.518 21.6792 84.518 19.3899V16.2959H87.034V19.2539C87.034 21.1126 86.5806 22.5746 85.674 23.6399C84.79 24.7052 83.4526 25.2379 81.662 25.2379C79.894 25.2379 78.5566 24.7052 77.65 23.6399C76.766 22.5746 76.324 21.1126 76.324 19.2539V6.94591C76.324 5.08725 76.766 3.62525 77.65 2.55991C78.5566 1.49458 79.894 0.961914 81.662 0.961914Z" fill="black"/>
<path d="M67.5156 3.61395H63.1296V1.19995H74.5536V3.61395H70.1676V25H67.5156V3.61395Z" fill="black"/>
<path d="M55.8809 0.961914C57.6716 0.961914 59.0203 1.49458 59.9269 2.55991C60.8563 3.62525 61.3209 5.08725 61.3209 6.94591V19.2539C61.3209 21.1126 60.8563 22.5746 59.9269 23.6399C58.9976 24.7052 57.6489 25.2379 55.8809 25.2379C54.0903 25.2379 52.7303 24.7052 51.8009 23.6399C50.8716 22.5746 50.4069 21.1126 50.4069 19.2539V14.2899H46.9729V24.9999H44.3209V1.19991H46.9729V11.9099H50.4069V6.94591C50.4069 5.08725 50.8716 3.62525 51.8009 2.55991C52.7303 1.49458 54.0903 0.961914 55.8809 0.961914ZM55.8809 3.37591C53.9996 3.37591 53.0589 4.52058 53.0589 6.80991V19.3899C53.0589 20.4779 53.2856 21.3279 53.7389 21.9399C54.2149 22.5292 54.9289 22.8239 55.8809 22.8239C56.8103 22.8239 57.5129 22.5292 57.9889 21.9399C58.4649 21.3279 58.7029 20.4779 58.7029 19.3899V6.80991C58.7029 5.69925 58.4649 4.84925 57.9889 4.25991C57.5129 3.67058 56.8103 3.37591 55.8809 3.37591Z" fill="black"/>
<path d="M40.535 14.12H34.721V22.586H41.861V25H32.069V1.19995H41.861V3.61395H34.721V11.74H40.535V14.12Z" fill="black"/>
<path d="M20.4942 24.966L16.5502 6.02795V25H14.2382V1.19995H17.9442L21.8542 20.206L25.6282 1.19995H29.3342V25H26.8182V5.85795L23.0442 24.966H20.4942Z" fill="black"/>
<path d="M3.11399 25H0.359985V1.19995H2.70599V18.948L5.15399 11.434L8.62199 1.19995H11.58V25H9.19999V6.06195L6.64999 13.95L3.11399 25Z" fill="black"/>
</svg>
